<?xml version='1.0' encoding='utf-8'?>
<svg xmlns="http://www.w3.org/2000/svg" enable-background="new 0 0 100 100" version="1.1" viewBox="0 0 100 100">
				<path d="M50,49.915L7.283,36.036C13.415,17.162,30.156,5,50,5V49.915z" fill="#E57E25"/>
				<path d="M50,49.915l-26.4,36.337C7.545,74.587,1.151,54.908,7.283,36.036L50,49.915z" fill="#F19B1F"/>
				<path d="M50,49.915l26.401,36.337c-16.056,11.664-36.748,11.664-52.801,0L50,49.915z" fill="#3B97D2"/>
				<path d="M50,49.915l42.716-13.879c6.133,18.873-0.262,38.551-16.315,50.216L50,49.915z" fill="#4EB96F"/>
				<path d="M50,49.915V5c19.845,0,36.583,12.162,42.716,31.036L50,49.915z" fill="#EFC319"/>
	<circle cx="50" cy="50" r="20.952" fill="#fff"/>
</svg>