<?xml version='1.0' encoding='utf-8'?>
<svg xmlns="http://www.w3.org/2000/svg" enable-background="new 0 0 100 100" version="1.1" viewBox="0 0 100 100">
			<path d="M50,50L11.029,27.5C19.305,13.166,33.449,5,50,5V50z" fill="#945BA4"/>
			<path d="M50,50L11.029,72.5c-8.275-14.335-8.275-30.666,0-45L50,50z" fill="#E57E25"/>
			<path d="M50,50v45c-16.551,0-30.695-8.165-38.971-22.5L50,50z" fill="#F19B1F"/>
			<path d="M50,50l38.971,22.5C80.695,86.835,66.553,95,50,95V50z" fill="#3B97D2"/>
			<path d="M50,50l38.971-22.5c8.276,14.334,8.276,30.665,0,45L50,50z" fill="#4EB96F"/>
			<path d="M50,50V5c16.553,0,30.695,8.166,38.971,22.5L50,50z" fill="#EFC319"/>
</svg>