<?xml version='1.0' encoding='utf-8'?>
<svg xmlns="http://www.w3.org/2000/svg" enable-background="new 0 0 1280 671" version="1.1" viewBox="0 0 1280 671">
<path d="m1257.4 219.01c-0.0112-7.4346-2.401-9.9109-9.7988-9.9656-9.8287-0.0726-19.665 0.1902-29.486-0.0865-17.524-0.4938-29.992-7.9198-35.528-25.728-5.3605-17.244-13.574-33.15-22.547-48.664-10.473-18.107-24.419-33.556-39.662-47.64-19.96-18.443-42.793-32.705-67.915-43.225-24.802-10.387-50.553-16.508-77.468-17.508-9.2925-0.4558-18.583-0.5997-27.867 0.1722-18.886 0.7761-37.372 4.1364-55.197 10.216-50.241 17.135-90.032 48.076-119.14 92.443-7.2863 11.107-14.195 22.379-23.806 31.687-0.6821 0.719-1.3644 1.438-2.0461 2.1569 7e-4 -0.0033 2e-3 -0.0065 0.0027-0.0098-3.7372 3.2911-7.4744 6.5823-11.21 9.8749 0.0259-0.0032 0.0513-0.0096 0.0771-0.013-0.6084 0.0963-1.066 0.3533-1.0902 1.0725-0.0021-4e-4 0.0065-0.2123 0.0065-0.2123-8.1526 4.8671-16.044 10.272-25.526 12.409-3.3972 1.6314-6.2161 0.4233-9.5896-0.9138-21.532-8.5344-43.529-14.081-67.172-12.176-17.167 1.3831-33.307 5.9257-49.258 11.775-3.9022 1.431-7.7134 1.5543-11.724 0.562-14.351-3.5511-24.864-12.913-35.135-22.769-10.591-10.162-17.901-22.659-26.034-34.688-28.855-42.675-67.602-72.993-116.34-90.074-17.325-6.0723-35.199-9.9996-53.65-10.747-14.179-1.7009-28.358-1.6902-42.534 0.0068-10.535 0.2878-20.84 2.0112-30.959 4.9114-3.2178-0.1416-6.1282 1.196-9.0944 2.0742-13.04 3.8604-26.029 7.895-37.871 14.832-9e-4 -0.0012-0.0087-0.0935-0.0087-0.0935-1.5402 0.2031-2.8929 0.7893-3.9688 1.9443 0-0.0027-0.0888-0.0419-0.0886-0.0408-0.631 0.2096-1.3033 0.3403-1.8869 0.6423-54.337 28.132-91.151 71.428-111.06 129.09-6.1036 17.676-19.972 28.482-38.75 28.65-9.8313 0.0884-19.664-0.023-29.496 0.0515-7.1921 0.0545-9.5845 2.4731-9.608 9.6447-0.0427 12.998-0.0153 25.997-0.0153 38.995 1e-4 6.7464 0.9084 8.1052 7.2074 10.028 12.242 3.7375 24.409 7.7729 36.789 10.985 15.554 4.0359 24.349 14.137 28.077 29.217 9.7722 39.526 28.432 74.224 56.477 103.76 2.7706 2.9177 3.3625 5.407 2.3398 9.1375-8.5116 31.049-16.679 62.193-25.331 93.202-6.3782 22.861-13.414 45.538-19.987 68.346-3.6133 12.538-6.0151 25.268-3.4205 38.376 3.0869 15.595 13.381 24.489 29.213 24.926 12.301 0.3398 19.525-7.3738 24.936-17.081 8.8088-15.802 10.227-33.267 9.9228-50.815-0.3007-17.357-0.1935-34.637 1.8879-51.9 0.9733-8.0721 1.6129-16.136 3.284-24.155 3.5711-17.138 7.4255-34.126 15.293-49.917 3.2446-6.5126 3.2697-6.4935 9.706-2.6195 56.281 33.875 116.41 42.143 179.6 25.31 46.123-12.288 83.565-38.734 114.29-74.982 10.928-12.893 18.98-27.701 28.24-41.716 18.682-28.272 38.343-55.904 56.686-84.39 6.0856-9.4503 14.228-13.711 24.183-15.157 23.505-3.4147 47.158-2.9 70.741-0.6408 12.3 1.1783 22.195 6.3423 28.926 17.597 8.0107 13.396 16.967 26.235 25.702 39.188 11.99 17.78 24.659 35.1 35.602 53.582 27.029 45.651 64.909 79.214 114.13 98.898 51.398 20.557 103.86 21.236 156.41 3.907 17.204-5.6725 33.641-13.213 48.856-23.155 2.9877-1.9522 4.1649-1.2031 5.5302 1.7139 6.7225 14.364 11.023 29.436 14.204 44.943 5.1311 25.008 7.762 50.248 7.0652 75.732-0.3063 11.207-0.2164 22.297 1.5288 33.354 2.0537 13.011 5.8137 25.345 15.569 34.872 12.919 12.617 35.776 8.3993 43.51-7.9333 4.0228-8.4962 5.1255-17.515 4.5195-26.806-0.9504-14.575-4.8469-28.476-9.433-42.255-14.555-43.73-25.201-88.602-38.694-132.64-2.7681-9.0332-2.3627-15.578 5.0114-22.322 6.3933-5.847 11.971-12.851 15.902-20.844-5e-4 -1e-4 -1e-3 -1e-4 -0.0015-1e-4 -0.0015-5e-4 -0.0179-0.1028-0.0179-0.1028 1.8979-0.8645 2.9092-2.34 3.0433-4.4184 0.2406-0.4167 0.4796-0.8332 0.7185-1.2496 1.7549-0.4867 2.2535-1.7719 2.1917-3.4128 1.0859-0.2264 1.2-1.019 1.1132-1.9274 0.545-0.106 0.8956-0.392 0.8601-1.0347 1.1969-0.2247 1.0648-1.1484 1.0873-1.9899 0.5605-0.1284 0.9282-0.4348 0.9011-1.1051 3.276-4.6664 6.5352-9.342 8.0162-14.97 0.9753-0.34 1.2761-1.1624 1.412-2.1014 0.8274-1.4191 1.774-2.7821 2.4592-4.2659 6.4412-13.951 10.837-28.581 14.904-43.374 3.7257-13.551 12.143-23.054 26.405-26.21 13.485-2.9835 26.298-8.1273 39.498-12.018 3.7103-1.0936 5.5643-3.4464 5.4845-7.7491-0.2501-13.49-0.085-26.987-0.1052-40.482zm-1038.4-168.01c-0.4028 0.2334-0.7958 0.3793-1.1781 0.4312 0.3824-0.0521 0.7753-0.1979 1.1781-0.4312zm254.46 333.08c-33.047 38.956-75.27 62.851-126 69.565-70.737 9.3631-130.23-13.811-178.43-65.951-21.485-23.242-35.732-50.707-44.115-81.252-9.634-35.103-9.0593-70.218-0.076-105.26 9.4429-36.832 28.852-68.059 56.051-94.203 17.749-17.061 38.577-29.983 61.403-39.482 1.3498-0.5618 2.614-1.3293 3.918-2.001l-0.0049-0.0745c1.6968 0.0757 3.2277-0.2114 4.1221-1.8936 0.0024 0.0079 0.1006-0.0066 0.1002-0.0081 7.1841-1.079 13.94-3.6799 20.815-5.8604-0.253-0.1278-0.5131-0.2323-0.7784-0.3208 0.266 0.0886 0.5267 0.1934 0.7804 0.3215l-0.0588-0.2185c4e-4 -0.0012 0.0012-0.0022 0.0016-0.0034 11.621-1.5493 23.243-3.0955 34.864-4.6415 8.6392 0.0034 17.278 0.0068 25.917 0.0103 4.9252 0.587 9.838 1.3263 14.778 1.7289 9.9146 0.8081 19.39 3.844 29.131 5.5161 18.315 5.7372 35.87 13.223 52.086 23.537 40.085 25.495 67.472 61.019 83 105.81 0.6494 1.8735 1.3987 3.7125 2.1016 5.5675 0.6924 0.1615 1.2275-0.3723 1.7383-0.8257-0.5107 0.4536-1.0459 0.9875-1.7383 0.8262 0.2699 2.1442 0.5332 4.2899 1.8652 6.1094 0 0-0.1125 0.0375-0.114 0.0375-2e-4 -1e-4 -5e-4 -2e-4 -7e-4 -2e-4 2.0027 10.411 4.4966 20.714 5.452 31.334 5.1254 56.972-9.7529 107.94-46.816 151.63zm264.63-180.82c-0.4362 0.1797-0.6996 0.5104-0.8408 0.9395 0.1411-0.4291 0.4045-0.7598 0.8408-0.9395zm-199.72 30.997c0.1207-0.2794 0.2415-0.5587 0.3623-0.8381 4e-4 1e-4 7e-4 2e-4 1e-3 4e-4 -0.1221 0.2796-0.2427 0.5587-0.3633 0.8377zm201.07-25.725c-2.4021 12.777-4.0369 25.645-4.2861 38.656-0.1265 6.6028-0.0221 13.21-1.124 20.133-3.1633-4.3465-6.8687-8.4023-9.3857-13.096-6.873-12.815-18.205-18.868-31.596-22.226-35.762-8.9663-71.464-8.7048-107.02 0.9926-11.727 3.1987-21.439 9.351-27.578 20.494-2.8381 5.1519-6.1965 10.136-10.979 14.571-0.1155-12.443 0.1039-24.504-0.7698-36.534-0.6531-8.9901-1.7388-17.892-4.6833-26.471 9.3298 3.2726 17.904 8.5852 27.809 10.305 2.62 0.4548 5.2294 1.0493 7.87 1.2902 5.3088 0.4844 9.9058-0.5735 15.021-3.1679 9.8572-4.9997 20.569-8.3813 31.671-10.15 23.83-3.7969 46.52 0.481 67.874 10.822 8.3634 4.0499 15.869 2.1382 23.652 0.6885 7.6267-1.4206 14.522-5.1984 21.227-9.1109 0 3e-4 1e-4 5e-4 1e-4 8e-4 3.3114-1.1508 2.6423 0.9495 2.2941 2.802zm404.05 159.08c0.2904 0.2567 0.3973 0.7401 0.427 1.2217-0.03-0.4825-0.1371-0.9653-0.427-1.2217zm19.666-94.553c-1.7465 23.959-8.2449 46.622-18.586 68.243-0.6329 1.3231-1.0912 2.7297-1.6306 4.0975-1e-4 7e-4 -2e-4 0.0015-5e-4 0.0021-3.1934 4.5472-6.0796 9.2673-8.1539 14.446 0 0-0.0656-0.0287-0.0658-0.0289-0.0259 0.7346 0.1309 1.5178 0.2738 2.2984-0.1431-0.7807-0.2998-1.5639-0.2739-2.2986-8.2343 12.289-16.862 24.277-27.43 34.71-43.033 42.482-94.364 63.525-155.23 60.983-79.66-3.3263-158.03-59.64-183.08-145.29-5.8347-19.949-7.9879-40.205-7.6927-60.851 0.0403-2.8257-0.0298-5.653-0.0485-8.4806-0.7201 0.1199-1.3007 0.3611-1.6849 0.8053 0.3843-0.4443 0.9648-0.6859 1.6852-0.8063 5e-3 -0.5433 0.0099-1.0865 0.0148-1.6298-1.0813-0.7684-1.3344-1.8386-1.3126-2.9324-0.0217 1.0938 0.2313 2.1634 1.3126 2.93 1.3468-10.169 2.6936-20.335 4.0405-30.501l-0.205-0.1594c1e-4 -4e-4 1e-4 -9e-4 1e-4 -0.0012 2.1038-2.1859 1.2981-5.2584 2.3647-7.7599 4.6648-13.117 9.0444-26.331 15.581-38.713 30.662-58.083 78.232-94.324 142.63-105.99 65.423-11.855 124.35 4.28 173.96 49.342 34.763 31.577 55.313 71.273 62.49 117.8 1.2194 7.9043 1.686 15.848 2.1796 23.803 1e-4 2e-4 1e-4 5e-4 1e-4 8e-4 -0.2766 8.6649 0.4292 17.372-1.1357 25.981z"/>
</svg>